<svg width="45" height="45" viewBox="0 0 45 45" fill="none" xmlns="http://www.w3.org/2000/svg">
<path opacity="0.5" d="M36.1667 14.5508L38.3276 15.2122C40.5826 15.9025 41.7101 16.2476 42.3552 17.0693C43 17.891 43 18.9824 43 21.1653V33.0181C43 35.7182 43 37.0682 42.2262 37.9356C41.9634 38.2301 41.6443 38.4782 41.2848 38.6679C40.2259 39.2262 38.7759 39.0042 35.8753 38.5604C33.0135 38.1224 31.5826 37.9034 30.1643 38.0124C29.6666 38.0506 29.1721 38.1188 28.6842 38.2167C27.2938 38.4955 25.9848 39.0965 23.3669 40.2985C19.9509 41.8671 18.2428 42.6513 16.4248 42.893C15.8772 42.9658 15.3245 43.0018 14.7712 43.0008C12.9341 42.9976 11.1381 42.4479 7.54611 41.3484L6.67245 41.081C4.41738 40.3908 3.28984 40.0457 2.64493 39.2239C2 38.4022 2 37.3108 2 35.128V24.8167C2 21.3468 2 19.612 3.11249 18.6788C3.30717 18.5156 3.52176 18.3736 3.752 18.2556C5.06773 17.5815 6.86007 18.1301 10.4448 19.2273" stroke="#003D7C" stroke-width="4"/>
<path d="M8.8335 13.9231C8.8335 7.33816 14.9523 2 22.5002 2C30.048 2 36.1668 7.33816 36.1668 13.9231C36.1668 20.4564 31.8049 28.0803 24.9993 30.8066C23.4129 31.4423 21.5875 31.4423 20.001 30.8066C13.1954 28.0803 8.8335 20.4564 8.8335 13.9231Z" stroke="#003D7C" stroke-width="4"/>
<path d="M22.4999 18.7319C25.0159 18.7319 27.0554 16.859 27.0554 14.5486C27.0554 12.2382 25.0159 10.3652 22.4999 10.3652C19.9839 10.3652 17.9443 12.2382 17.9443 14.5486C17.9443 16.859 19.9839 18.7319 22.4999 18.7319Z" stroke="#003D7C" stroke-width="4"/>
</svg>
