<svg width="45" height="45" viewBox="0 0 45 45" fill="none" xmlns="http://www.w3.org/2000/svg">
<path opacity="0.5" d="M34.8 10.4082C37.4652 10.6704 39.2592 11.2628 40.5982 12.6019C43 15.0036 43 18.869 43 26.6002C43 34.3312 43 38.1966 40.5982 40.5984C38.1966 43.0002 34.331 43.0002 26.6 43.0002H18.4C10.669 43.0002 6.80346 43.0002 4.40172 40.5984C2 38.1966 2 34.3312 2 26.6002C2 18.869 2 15.0036 4.40172 12.6019C5.74074 11.2628 7.53477 10.6704 10.2 10.4082" stroke="#003D7C" stroke-width="4"/>
<path d="M18.3999 10.2012H26.5999" stroke="#003D7C" stroke-width="4" stroke-linecap="round"/>
<path d="M20.4502 16.3496H24.5502" stroke="#003D7C" stroke-width="4" stroke-linecap="round"/>
<path d="M14.6259 22.0882L13.1507 20.8588C11.6998 19.6497 10.9744 19.0451 10.5873 18.2187C10.2002 17.3923 10.2002 16.4479 10.2002 14.5593V12.25C10.2002 7.41811 10.2002 5.00216 11.7013 3.50107C13.2024 2 15.6183 2 20.4502 2H24.5502C29.382 2 31.798 2 33.2992 3.50107C34.8002 5.00216 34.8002 7.41811 34.8002 12.25V14.5593C34.8002 16.4479 34.8002 17.3923 34.4132 18.2187C34.0261 19.0451 33.3006 19.6497 31.8496 20.8588L30.3744 22.0882C26.6094 25.2257 24.7267 26.7945 22.5002 26.7945C20.2737 26.7945 18.391 25.2257 14.6259 22.0882Z" stroke="#003D7C" stroke-width="4" stroke-linecap="round"/>
<path d="M10.2002 18.4004L14.6259 22.0885C18.391 25.2261 20.2737 26.7949 22.5002 26.7949C24.7267 26.7949 26.6094 25.2261 30.3744 22.0885L34.8002 18.4004" stroke="#003D7C" stroke-width="4" stroke-linecap="round"/>
</svg>
