<svg width="43" height="43" viewBox="0 0 43 43" fill="none" xmlns="http://www.w3.org/2000/svg">
<path d="M23.3716 2C23.3716 2 28.2194 2.44037 34.3891 8.60563C40.5589 14.7709 40.9997 19.615 40.9997 19.615" stroke="#003D7C" stroke-width="4" stroke-linecap="round"/>
<path d="M24.8408 9.33984C24.8408 9.33984 26.8975 9.92703 29.9824 13.0096C33.0673 16.0923 33.655 18.1474 33.655 18.1474" stroke="#003D7C" stroke-width="4" stroke-linecap="round"/>
<path opacity="0.5" d="M27.827 30.1162L28.7733 29.1208L26.5139 26.9763L25.5676 27.9717L27.827 30.1162ZM31.8869 28.7016L35.8559 30.9845L37.4105 28.2858L33.4415 26.0029L31.8869 28.7016ZM36.6219 35.7175L33.6706 38.8223L35.9301 40.9667L38.8814 37.862L36.6219 35.7175ZM31.895 39.8171C28.9138 40.1112 21.135 39.8603 12.6918 30.9777L10.4323 33.1221C19.6342 42.8029 28.4121 43.2897 32.201 42.9161L31.895 39.8171ZM12.6918 30.9777C4.63917 22.506 3.28843 15.36 3.12007 12.2257L0.0083205 12.3926C0.214512 16.2315 1.84572 24.0889 10.4323 33.1221L12.6918 30.9777ZM15.5491 17.1994L16.1449 16.5725L13.8854 14.428L13.2896 15.0549L15.5491 17.1994ZM16.6129 8.76799L13.9933 5.06556L11.4488 6.86327L14.0685 10.5657L16.6129 8.76799ZM5.12662 4.26736L1.86579 7.69784L4.12522 9.84236L7.38606 6.41187L5.12662 4.26736ZM14.4193 16.1271C13.2896 15.0549 13.2882 15.0564 13.2867 15.0579C13.2862 15.0584 13.2848 15.06 13.2838 15.061C13.2818 15.0631 13.2798 15.0653 13.2778 15.0675C13.2737 15.0719 13.2694 15.0765 13.2651 15.0813C13.2564 15.0908 13.2471 15.1012 13.2374 15.1124C13.218 15.1347 13.1966 15.1602 13.1738 15.1891C13.1281 15.2467 13.0765 15.3176 13.0223 15.4022C12.9136 15.572 12.7957 15.7955 12.6959 16.0758C12.4929 16.6458 12.3823 17.4006 12.5205 18.3432C12.7921 20.1952 14.0065 22.6857 17.1795 26.0239L19.439 23.8794C16.4731 20.759 15.7425 18.8373 15.6038 17.8918C15.5369 17.4356 15.6049 17.1952 15.6318 17.1197C15.6469 17.0773 15.6568 17.0655 15.6471 17.0806C15.6424 17.0879 15.6331 17.1017 15.6174 17.1215C15.6095 17.1314 15.6 17.1429 15.5887 17.1559C15.5831 17.1624 15.577 17.1692 15.5704 17.1765C15.5671 17.1801 15.5636 17.1838 15.5601 17.1877C15.5583 17.1896 15.5565 17.1915 15.5547 17.1935C15.5538 17.1944 15.5523 17.1959 15.5519 17.1964C15.5505 17.1979 15.5491 17.1994 14.4193 16.1271ZM17.1795 26.0239C20.3433 29.3522 22.7326 30.6607 24.5556 30.9565C25.4911 31.1083 26.2484 30.987 26.8217 30.7612C27.102 30.6507 27.3237 30.521 27.4901 30.4031C27.5732 30.3441 27.6424 30.2883 27.698 30.2395C27.7261 30.215 27.7506 30.1922 27.772 30.1714C27.7828 30.1612 27.7928 30.1513 27.8019 30.1421C27.8065 30.1376 27.8108 30.133 27.815 30.1286C27.8171 30.1266 27.8191 30.1245 27.8212 30.1224C27.8223 30.1214 27.8237 30.1197 27.8241 30.1193C27.8256 30.1176 27.827 30.1162 26.6973 29.0439C25.5676 27.9717 25.569 27.9703 25.5705 27.9688C25.5709 27.9682 25.5723 27.9667 25.5732 27.9657C25.575 27.9638 25.5769 27.962 25.5788 27.9601C25.5825 27.9564 25.5861 27.9526 25.5894 27.9491C25.5964 27.9422 25.6031 27.9356 25.6093 27.9296C25.6218 27.9175 25.6332 27.9072 25.6432 27.8984C25.6629 27.881 25.6777 27.8698 25.6872 27.8631C25.7068 27.8492 25.7047 27.854 25.6783 27.8644C25.6382 27.8802 25.4494 27.9468 25.0553 27.8829C24.2189 27.7471 22.4143 27.0095 19.439 23.8794L17.1795 26.0239ZM13.9933 5.06556C11.8876 2.08952 7.674 1.58743 5.12662 4.26736L7.38606 6.41187C8.47225 5.26917 10.3844 5.35893 11.4488 6.86327L13.9933 5.06556ZM3.12007 12.2257C3.07555 11.3968 3.43676 10.5666 4.12522 9.84236L1.86579 7.69784C0.752562 8.86899 -0.0935597 10.4959 0.0083205 12.3926L3.12007 12.2257ZM33.6706 38.8223C33.091 39.4322 32.4846 39.759 31.895 39.8171L32.201 42.9161C33.7531 42.7629 35.0091 41.9358 35.9301 40.9667L33.6706 38.8223ZM16.1449 16.5725C18.1551 14.4578 18.2974 11.1484 16.6129 8.76799L14.0685 10.5657C14.9455 11.8052 14.8111 13.4543 13.8854 14.428L16.1449 16.5725ZM35.8559 30.9845C37.5611 31.9654 37.895 34.3783 36.6219 35.7175L38.8814 37.862C41.5923 35.0098 40.8028 30.237 37.4105 28.2858L35.8559 30.9845ZM28.7733 29.1208C29.574 28.2783 30.8217 28.089 31.8869 28.7016L33.4415 26.0029C31.1593 24.6903 28.329 25.0666 26.5139 26.9763L28.7733 29.1208Z" fill="#003D7C"/>
</svg>
